<svg width="30" height="25" viewBox="0 0 30 25" fill="none" xmlns="http://www.w3.org/2000/svg">
<path d="M10.92 19.6113H2.88111C1.26296 19.6113 1.13234 19.4783 1.13234 17.8604V7.14389C1.13234 5.52319 1.26296 5.39237 2.88111 5.39237H11.2176C12.8362 5.39237 12.9668 5.52299 12.9668 7.14389V17.5613H13.5988V7.14389C13.5988 5.17755 13.1818 4.76062 11.2176 4.76062H2.88111C0.916925 4.76062 0.5 5.17755 0.5 7.14389V17.8604C0.5 19.8234 0.916925 20.2413 2.88111 20.2413H10.9202L10.92 19.6113Z" fill="white"/>
<path d="M11.3119 19.8499L13.2069 17.9543H11.3119V19.8499Z" fill="white"/>
<path d="M10.8414 9.94739H3.25903V10.5791H10.8414V9.94739Z" fill="white"/>
<path d="M10.8414 12.186H3.25903V12.8175H10.8414V12.186Z" fill="white"/>
<path d="M10.8414 14.4236H3.25903V15.0536H10.8414V14.4236Z" fill="white"/>
<path d="M27.3447 4.76129H19.0086C17.0444 4.76129 16.6274 5.17822 16.6274 7.14456V17.8608C16.6274 19.824 17.0444 20.2421 19.0086 20.2421H27.0476V19.6118H19.0086C17.3902 19.6118 17.2596 19.479 17.2596 17.8608V7.14456C17.2596 5.52386 17.3902 5.39304 19.0086 5.39304H27.3447C28.9634 5.39304 29.0942 5.52366 29.0942 7.14456V17.5632H29.7266V7.14456C29.7264 5.17822 29.3085 4.76129 27.3447 4.76129Z" fill="white"/>
<path d="M27.4397 19.8499L29.3344 17.9543H27.4397V19.8499Z" fill="white"/>
<path d="M26.9674 9.94739H19.3846V10.5791H26.9674V9.94739Z" fill="white"/>
<path d="M26.9674 12.186H19.3846V12.8175H26.9674V12.186Z" fill="white"/>
<path d="M26.9674 14.4236H19.3846V15.0536H26.9674V14.4236Z" fill="white"/>
<path d="M8.08594 3.53671L9.93263 3.40864L9.46616 2.60064C11.1317 1.64498 13.0593 1.09724 15.1128 1.09724C17.8407 1.09724 20.3434 2.0623 22.3078 3.6642H23.9461C21.6831 1.40176 18.5586 0 15.1129 0C12.8595 0 10.7494 0.609035 8.92135 1.65614L8.28686 0.558902L6.27881 3.6642H7.91694C7.97177 3.62033 8.03111 3.58058 8.08594 3.53671Z" fill="white"/>
<path d="M22.1867 21.4275L20.2503 21.5249L20.7565 22.4016C19.0898 23.3553 17.1652 23.903 15.1127 23.903C12.3879 23.903 9.88535 22.9396 7.92116 21.3384H6.28186C8.54449 23.6007 11.6684 25.0001 15.1117 25.0001C17.3643 25.0001 19.4736 24.3914 21.3005 23.3461L21.8951 24.3748L23.9429 21.3375H22.3038C22.2664 21.3696 22.2253 21.3966 22.1867 21.4275Z" fill="white"/>
</svg>
