<svg width="22" height="22" viewBox="0 0 22 22" fill="none" xmlns="http://www.w3.org/2000/svg">
<path d="M0.00109995 16.5C0.00109995 16.8813 0.133093 17.2113 0.39708 17.49C0.661067 17.7687 0.991051 17.9007 1.38703 17.886H2.75096C2.75096 19.03 3.15428 19.998 3.9609 20.79C4.76753 21.582 5.74281 21.9853 6.88676 22H11.4845C10.5019 21.3107 9.70995 20.394 9.10865 19.25H6.88676C6.50544 19.25 6.17546 19.118 5.89681 18.854C5.61815 18.59 5.48616 18.2673 5.50083 17.886V4.136C5.50083 3.75467 5.63282 3.432 5.89681 3.168C6.16079 2.904 6.49078 2.76467 6.88676 2.75H17.8862C18.2529 2.75 18.5755 2.88933 18.8542 3.168C19.1328 3.44667 19.2648 3.76933 19.2501 4.136V9.108C20.3941 9.70933 21.3107 10.5013 22 11.484V4.136C22 2.992 21.5967 2.01667 20.7901 1.21C19.9834 0.403333 19.0155 0 17.8862 0H6.88676C5.74281 0 4.76753 0.403333 3.9609 1.21C3.15428 2.01667 2.75096 2.992 2.75096 4.136H1.38703C1.00572 4.136 0.675733 4.268 0.39708 4.532C0.118427 4.796 -0.013566 5.11867 0.00109995 5.5C0.0157659 5.88133 0.147759 6.21133 0.39708 6.49C0.646401 6.76867 0.976385 6.90067 1.38703 6.886H2.75096V9.636H1.38703C1.00572 9.636 0.675733 9.768 0.39708 10.032C0.118427 10.296 -0.013566 10.6187 0.00109995 11C0.0157659 11.3813 0.147759 11.7113 0.39708 11.99C0.646401 12.2687 0.976385 12.4007 1.38703 12.386H2.75096V15.136H1.38703C1.00572 15.136 0.675733 15.268 0.39708 15.532C0.118427 15.796 -0.013566 16.1187 0.00109995 16.5ZM6.88676 16.5H8.31668C8.31668 16.4707 8.30935 16.3753 8.29469 16.214C8.28002 16.0527 8.26535 15.9207 8.25069 15.818C8.23602 15.7153 8.25069 15.5907 8.29469 15.444C8.33868 15.2973 8.34602 15.1947 8.31668 15.136H6.88676V16.5ZM6.88676 13.75H8.58067C8.71266 13.2513 8.88866 12.7967 9.10865 12.386H6.88676V13.75ZM6.88676 11H10.0326C10.4872 10.4427 10.9712 9.988 11.4845 9.636H6.88676V11ZM6.88676 8.25H17.8862V6.886H6.88676V8.25ZM6.88676 5.5H17.8862V4.136H6.88676V5.5ZM9.63662 15.818C9.63662 16.654 9.79794 17.4533 10.1206 18.216C10.4432 18.9787 10.8832 19.6387 11.4405 20.196C11.9978 20.7533 12.6578 21.1933 13.4204 21.516C14.1831 21.8387 14.9824 22 15.8183 22C16.6543 22 17.4536 21.8387 18.2162 21.516C18.9788 21.1933 19.6388 20.7533 20.1961 20.196C20.7534 19.6387 21.1934 18.9787 21.516 18.216C21.8387 17.4533 22 16.654 22 15.818C22 14.982 21.8387 14.1827 21.516 13.42C21.1934 12.6573 20.7534 11.9973 20.1961 11.44C19.6388 10.8827 18.9788 10.4427 18.2162 10.12C17.4536 9.79733 16.6543 9.636 15.8183 9.636C14.9824 9.636 14.1831 9.79733 13.4204 10.12C12.6578 10.4427 11.9978 10.8827 11.4405 11.44C10.8832 11.9973 10.4432 12.6573 10.1206 13.42C9.79794 14.1827 9.63662 14.982 9.63662 15.818ZM12.3865 15.818C12.3865 14.8647 12.7165 14.058 13.3764 13.398C14.0364 12.738 14.8504 12.4007 15.8183 12.386C16.7863 12.3713 17.5929 12.7087 18.2382 13.398C18.8835 14.0873 19.2208 14.894 19.2501 15.818C19.2501 16.7713 18.9128 17.578 18.2382 18.238C17.5636 18.898 16.7569 19.2353 15.8183 19.25C14.8797 19.2647 14.0657 18.9273 13.3764 18.238C12.6871 17.5487 12.3572 16.742 12.3865 15.818ZM15.1363 15.818C15.1363 16.0087 15.2023 16.17 15.3343 16.302C15.4663 16.434 15.6277 16.5 15.8183 16.5H17.1822C17.3729 16.5 17.5342 16.434 17.6662 16.302C17.7982 16.17 17.8715 16.0087 17.8862 15.818C17.9009 15.6273 17.8275 15.466 17.6662 15.334C17.5049 15.202 17.3436 15.136 17.1822 15.136H16.5003V14.454C16.5003 14.2633 16.4343 14.102 16.3023 13.97C16.1703 13.838 16.009 13.7647 15.8183 13.75C15.6277 13.7353 15.4663 13.8087 15.3343 13.97C15.2023 14.1313 15.1363 14.2927 15.1363 14.454V15.818Z" fill="#2F3C7E"/>
</svg>
