<svg width="22" height="21" viewBox="0 0 22 21" fill="none" xmlns="http://www.w3.org/2000/svg">
<path fill-rule="evenodd" clip-rule="evenodd" d="M3.14286 0C1.40711 0 0 1.40711 0 3.14286V17.8095C0 19.5453 1.40711 20.9524 3.14286 20.9524H15.7143C17.4501 20.9524 18.8571 19.5453 18.8571 17.8095V3.14286C18.8571 1.40711 17.4501 0 15.7143 0H3.14286ZM9.42857 6.28571C7.11423 6.28571 5.23809 8.16185 5.23809 10.4762C5.23809 12.7905 7.11423 14.6667 9.42857 14.6667C11.7429 14.6667 13.619 12.7905 13.619 10.4762C13.619 8.16185 11.7429 6.28571 9.42857 6.28571ZM6.64856 18.5236C7.05317 18.0893 7.77761 17.8095 9.42857 17.8095C11.1206 17.8095 11.838 18.0831 12.2354 18.517C12.6261 18.9437 13.2887 18.9729 13.7155 18.5821C14.1422 18.1915 14.1715 17.5288 13.7807 17.1021C12.7401 15.9655 11.2012 15.7143 9.42857 15.7143C7.66731 15.7143 6.15159 15.9833 5.11551 17.0955C4.72112 17.5188 4.74459 18.1816 5.16793 18.5761C5.59127 18.9704 6.25417 18.9469 6.64856 18.5236Z" fill="#2F3C7E"/>
<path d="M7.33325 10.4762C7.33325 9.31902 8.27132 8.38098 9.42849 8.38098C10.5857 8.38098 11.5237 9.31902 11.5237 10.4762C11.5237 11.6334 10.5857 12.5715 9.42849 12.5715C8.27132 12.5715 7.33325 11.6334 7.33325 10.4762Z" fill="#2F3C7E"/>
<path d="M18.4861 20.9524H18.8572C20.5928 20.9524 22 19.5453 22 17.8095V3.14286C22 1.40711 20.5928 0 18.8572 0H18.4861C19.356 0.767842 19.9048 1.89128 19.9048 3.14286V17.8095C19.9048 19.0611 19.356 20.1846 18.4861 20.9524Z" fill="#2F3C7E"/>
</svg>
