<svg width="17" height="19" viewBox="0 0 17 19" fill="none" xmlns="http://www.w3.org/2000/svg">
<path d="M16.2684 6.22082C16.5613 5.92793 16.5613 5.45306 16.2684 5.16016L11.4955 0.387191C11.2026 0.0942974 10.7277 0.0942973 10.4348 0.387191C10.1419 0.680084 10.1419 1.15496 10.4348 1.44785L14.6774 5.69049L10.4348 9.93313C10.1419 10.226 10.1419 10.7009 10.4348 10.9938C10.7277 11.2867 11.2026 11.2867 11.4955 10.9938L16.2684 6.22082ZM0.5 5.69049L0.5 6.44049L15.7381 6.44049L15.7381 5.69049L15.7381 4.94049L0.5 4.94049L0.5 5.69049Z" fill="white"/>
<path d="M0.731574 12.7792C0.438681 13.0721 0.438681 13.547 0.731574 13.8399L5.50454 18.6128C5.79744 18.9057 6.27231 18.9057 6.5652 18.6128C6.8581 18.3199 6.8581 17.8451 6.5652 17.5522L2.32256 13.3095L6.5652 9.0669C6.8581 8.77401 6.8581 8.29913 6.5652 8.00624C6.27231 7.71335 5.79744 7.71335 5.50454 8.00624L0.731574 12.7792ZM16.5 13.3095V12.5595L1.2619 12.5595V13.3095V14.0595L16.5 14.0595V13.3095Z" fill="white"/>
</svg>
