<svg width="20" height="20" viewBox="0 0 20 20" fill="none" xmlns="http://www.w3.org/2000/svg">
<path d="M0 16.26V3.76C0 2.72 0.366657 1.83333 1.09997 1.1C1.83329 0.366667 2.71993 0 3.7599 0H12.9397L10.4197 2.5H3.7599C3.41325 2.5 3.11325 2.62667 2.85993 2.88C2.6066 3.13333 2.4866 3.42667 2.49994 3.76V16.26C2.49994 16.6067 2.61993 16.9 2.85993 17.14C3.09992 17.38 3.39991 17.5 3.7599 17.5H16.2596C16.5929 17.5 16.8862 17.38 17.1396 17.14C17.3929 16.9 17.5129 16.6067 17.4996 16.26V9.58L19.9995 7.08V16.26C19.9995 17.3 19.6328 18.18 18.8995 18.9C18.1662 19.62 17.2862 19.9867 16.2596 20H3.7599C2.71993 20 1.83329 19.6333 1.09997 18.9C0.366657 18.1667 0 17.2867 0 16.26ZM3.7599 16.26L5.07987 11.36L12.7397 3.74L16.3196 7.22L8.61978 14.9L3.7599 16.26ZM13.8196 2.66L15.7396 0.74C16.2196 0.246667 16.8062 0 17.4996 0C18.1929 0 18.7795 0.246667 19.2595 0.74C19.7395 1.23333 19.9862 1.82 19.9995 2.5C20.0128 3.18 19.7662 3.77333 19.2595 4.28L17.3996 6.14L13.8196 2.66Z" fill="white"/>
</svg>
