<svg width="24" height="24" viewBox="0 0 24 24" fill="none" xmlns="http://www.w3.org/2000/svg">
<path fill-rule="evenodd" clip-rule="evenodd" d="M11.9972 17.9019C9.92175 17.9019 7.81316 16.6698 6.58254 15.0391C0.678474 15.0391 0.5 23.4735 0.5 23.4735H23.493C23.493 23.4735 23.9565 15.0016 17.3169 15.0016C16.0878 16.6525 14.0727 17.9019 11.9972 17.9019Z" fill="#2F3C7E"/>
<path fill-rule="evenodd" clip-rule="evenodd" d="M16.9429 7.79071C16.9429 10.2174 14.7278 14.8577 11.9931 14.8577C9.26269 14.8577 7.04614 10.216 7.04614 7.79071C7.04614 5.36547 9.26125 3.39648 11.9931 3.39648C14.7278 3.39792 16.9429 5.36691 16.9429 7.79071Z" fill="#2F3C7E"/>
<path fill-rule="evenodd" clip-rule="evenodd" d="M19.1505 5.69651C19.1505 5.24168 18.5172 4.87466 17.7313 4.87178V3.93479C17.7313 3.79517 17.7846 0.526489 12.0101 0.526489C6.23842 0.526489 6.29167 3.79517 6.29167 3.93479V4.90488C6.27728 4.90488 6.26577 4.90057 6.25281 4.90057C5.47127 4.90057 4.84229 5.26183 4.84229 5.70946V9.67333C4.84229 10.1181 5.4727 10.4808 6.25281 10.4808C7.03292 10.4808 7.66622 10.1181 7.66622 9.67333V5.70946C7.66622 5.64757 7.62736 5.59144 7.60433 5.53386V4.45294C7.60433 4.35363 7.18981 1.88664 12.0101 1.88664C16.8318 1.88664 16.3309 4.35363 16.3309 4.45294V5.59144C16.3223 5.62742 16.2949 5.65909 16.2949 5.69651V9.75106C16.2949 10.2073 16.9325 10.5772 17.7227 10.5772C17.74 10.5772 17.7529 10.5715 17.7702 10.5715V12.0525H16.3539V13.4487H19.1649L19.1505 5.69651Z" fill="#2F3C7E"/>
</svg>
