<svg width="17" height="21" viewBox="0 0 17 21" fill="none" xmlns="http://www.w3.org/2000/svg">
<path fill-rule="evenodd" clip-rule="evenodd" d="M15.6892 7.56177C14.9402 6.81275 13.7258 6.81274 12.9768 7.56177L3.92539 16.6131C3.65764 16.8809 3.47513 17.2219 3.40087 17.5932L3.02554 19.4699C2.8466 20.3645 3.63543 21.1534 4.53014 20.9745L6.40679 20.5991C6.77809 20.5249 7.11911 20.3424 7.38686 20.0746L16.4382 11.0232C17.1873 10.2742 17.1873 9.05981 16.4382 8.31078L15.6892 7.56177ZM13.8809 8.46591C14.1306 8.21624 14.5354 8.21624 14.7851 8.46591L15.5341 9.21494C15.7838 9.46461 15.7838 9.86941 15.5341 10.1191L13.826 11.8271L12.1729 10.1739L13.8809 8.46591ZM11.2687 11.0781L4.82954 17.5173C4.74029 17.6065 4.67946 17.7202 4.6547 17.844L4.27937 19.7206L6.15602 19.3453C6.27979 19.3205 6.39347 19.2597 6.48272 19.1705L12.9219 12.7313L11.2687 11.0781Z" fill="white"/>
<path fill-rule="evenodd" clip-rule="evenodd" d="M12.6892 0.561766C11.9402 -0.187254 10.7258 -0.187256 9.97676 0.561766L0.925393 9.61315C0.657641 9.8809 0.475132 10.2219 0.400873 10.5932L0.0255416 12.4699C-0.153399 13.3645 0.635431 14.1534 1.53014 13.9745L3.40679 13.5991C3.77809 13.5249 4.11911 13.3424 4.38686 13.0746L13.4382 4.02323C14.1873 3.27421 14.1873 2.05981 13.4382 1.31078L12.6892 0.561766ZM10.8809 1.46591C11.1306 1.21624 11.5354 1.21624 11.7851 1.46591L12.5341 2.21494C12.7838 2.46461 12.7838 2.86941 12.5341 3.11908L10.826 4.82711L9.17293 3.17394L10.8809 1.46591ZM8.26872 4.07809L1.82954 10.5173C1.74029 10.6065 1.67946 10.7202 1.6547 10.844L1.27937 12.7206L3.15602 12.3453C3.27979 12.3205 3.39347 12.2597 3.48272 12.1705L9.9219 5.73125L8.26872 4.07809Z" fill="white"/>
</svg>
