<svg width="15" height="15" viewBox="0 0 15 15" fill="none" xmlns="http://www.w3.org/2000/svg">
<path fill-rule="evenodd" clip-rule="evenodd" d="M13.1892 1.06177C12.4402 0.312746 11.2258 0.312744 10.4768 1.06177L1.42539 10.1131C1.15764 10.3809 0.975132 10.7219 0.900873 11.0932L0.525542 12.9699C0.346601 13.8645 1.13543 14.6534 2.03014 14.4745L3.90679 14.0991C4.27809 14.0249 4.61911 13.8424 4.88686 13.5746L13.9382 4.52323C14.6873 3.77421 14.6873 2.55981 13.9382 1.81078L13.1892 1.06177ZM11.3809 1.96591C11.6306 1.71624 12.0354 1.71624 12.2851 1.96591L13.0341 2.71494C13.2838 2.96461 13.2838 3.36941 13.0341 3.61908L11.326 5.32711L9.67293 3.67394L11.3809 1.96591ZM8.76872 4.57809L2.32954 11.0173C2.24029 11.1065 2.17946 11.2202 2.1547 11.344L1.77937 13.2206L3.65602 12.8453C3.77979 12.8205 3.89347 12.7597 3.98272 12.6705L10.4219 6.23125L8.76872 4.57809Z" fill="white"/>
</svg>
