<svg width="24" height="20" viewBox="0 0 24 20" fill="none" xmlns="http://www.w3.org/2000/svg">
<path d="M2.22222 17.2857L8.33333 10M21.7778 17.2857L15.6667 10M1 5.14286L9.83056 10.9916C10.6146 11.5109 11.0066 11.7707 11.4303 11.8715C11.8048 11.9607 12.1952 11.9607 12.5697 11.8715C12.9934 11.7707 13.3854 11.5109 14.1694 10.9916L23 5.14286M4.91111 18.5H19.0889C20.4579 18.5 21.1425 18.5 21.6653 18.2353C22.1253 18.0025 22.4993 17.6309 22.7336 17.174C23 16.6545 23 15.9744 23 14.6143V5.38571C23 4.02559 23 3.34552 22.7336 2.82602C22.4993 2.36905 22.1253 1.99753 21.6653 1.7647C21.1425 1.5 20.4579 1.5 19.0889 1.5H4.91111C3.5421 1.5 2.85758 1.5 2.33469 1.7647C1.87473 1.99753 1.50078 2.36905 1.26643 2.82602C1 3.34552 1 4.02558 1 5.38571V14.6143C1 15.9744 1 16.6545 1.26643 17.174C1.50078 17.6309 1.87473 18.0025 2.33469 18.2353C2.85758 18.5 3.54209 18.5 4.91111 18.5Z" stroke="#2F3C7E" stroke-width="2" stroke-linecap="round" stroke-linejoin="round"/>
</svg>
