<svg width="25" height="26" viewBox="0 0 25 26" fill="none" xmlns="http://www.w3.org/2000/svg">
<path d="M11.8408 4.42134C10.7829 3.36356 9.37624 2.78091 7.8801 2.78091C6.38396 2.78091 4.9774 3.36356 3.91937 4.42143C1.73552 6.60527 1.73552 10.1588 3.91945 12.3427C4.97757 13.4007 6.38413 13.9832 7.88027 13.9832C9.37632 13.9832 10.7829 13.4007 11.8408 12.3428C14.0247 10.1588 14.0247 6.60527 11.8408 4.42134ZM10.8765 11.3785C10.0761 12.1789 9.01214 12.6195 7.88027 12.6195C6.74832 12.6195 5.68413 12.1788 4.88379 11.3784C3.23157 9.72617 3.23149 7.03781 4.88362 5.3856C5.68405 4.58525 6.74815 4.14454 7.8801 4.14454C9.01197 4.14454 10.0761 4.58525 10.8765 5.38568C12.5288 7.0379 12.5288 9.72626 10.8765 11.3785Z" fill="#2F3C7E"/>
<path d="M24.3022 19.6214L18.5166 13.8359C18.0672 13.3864 17.4679 13.1389 16.8292 13.1389C16.5145 13.1389 16.2093 13.1994 15.9268 13.3142L14.7888 12.176C16.4309 9.18224 15.9875 5.34071 13.4543 2.80742C11.9655 1.31852 9.98575 0.498474 7.87995 0.498474C5.77423 0.498474 3.79453 1.31852 2.30538 2.8075C-0.768462 5.88143 -0.768462 10.8829 2.30538 13.9566C3.79453 15.4457 5.77414 16.2657 7.87995 16.2657C9.22943 16.2657 10.5265 15.9273 11.6765 15.2934L12.8122 16.4293C12.4613 17.292 12.6351 18.32 13.334 19.0188L19.1195 24.8044C19.5689 25.2539 20.1682 25.5013 20.8068 25.5015C21.4454 25.5015 22.0447 25.2539 22.4943 24.8044L24.3023 22.9964C25.2326 22.0658 25.2326 20.5519 24.3022 19.6214ZM13.8461 15.1124L13.0822 14.3483L13.8461 13.5842L14.6101 14.3483L13.8461 15.1124ZM3.51075 12.7513C1.10162 10.3421 1.10162 6.42198 3.51075 4.01286C4.6778 2.8458 6.22958 2.20297 7.87995 2.20297C9.53039 2.20297 11.0821 2.8458 12.2491 4.01286C14.6583 6.42198 14.6583 10.3421 12.2491 12.7513C11.0821 13.9184 9.53039 14.5611 7.87995 14.5611C6.2295 14.5611 4.6778 13.9184 3.51075 12.7513ZM23.0969 21.791L21.2889 23.5989C21.1613 23.7265 20.9902 23.7968 20.8069 23.7968C20.6235 23.7968 20.4522 23.7265 20.3248 23.5989L14.5391 17.8133C14.2734 17.5475 14.2734 17.115 14.5391 16.8492L16.3472 15.0413C16.4747 14.9136 16.646 14.8433 16.8292 14.8433C17.0126 14.8433 17.1838 14.9136 17.3114 15.0413L23.0969 20.8268C23.3627 21.0926 23.3627 21.5253 23.0969 21.791Z" fill="#2F3C7E"/>
</svg>
