<svg width="27" height="28" viewBox="0 0 27 28" fill="none" xmlns="http://www.w3.org/2000/svg">
<path d="M13.5 0.5C6.03872 0.5 0 6.53793 0 14C0 21.4613 6.03793 27.5 13.5 27.5C20.9613 27.5 27 21.4621 27 14C27 6.53872 20.9621 0.5 13.5 0.5ZM13.5 25.7C7.04864 25.7 1.79998 20.4514 1.79998 14C1.79998 7.54858 7.04864 2.29998 13.5 2.29998C19.9514 2.29998 25.2 7.54864 25.2 14C25.2 20.4514 19.9514 25.7 13.5 25.7Z" fill="#2F3C7E"/>
<path d="M17.0248 13.1H23.9608C23.5028 7.73007 18.9864 3.50003 13.4998 3.50003C8.0133 3.50003 3.49687 7.73007 3.03882 13.1H11.2847C11.6158 11.2286 12.9449 11.0555 16.8225 9.50774C17.5555 9.21549 18.2845 9.9448 17.992 10.6773L17.0248 13.1Z" fill="#2F3C7E"/>
<path d="M13.6076 12.7293C13.0233 12.9622 12.8434 13.7301 13.3067 14.1934C13.6092 14.4958 14.4193 14.7761 14.8605 13.6673L14.8675 13.6497V13.6497L15.5435 11.9565L13.6076 12.7293Z" fill="#2F3C7E"/>
<path d="M16.2513 14.9C15.0537 16.8747 12.5515 16.5523 11.5998 14.9H3.03882C3.49692 20.2699 8.0133 24.5 13.4998 24.5C18.9864 24.5 23.5028 20.2699 23.9609 14.9H16.2513Z" fill="#2F3C7E"/>
</svg>
