<svg width="22" height="20" viewBox="0 0 22 20" fill="none" xmlns="http://www.w3.org/2000/svg">
<path d="M20.2905 0.000423355H1.70946C1.48484 -7.88545e-05 1.26233 0.0449042 1.0547 0.13279C0.84708 0.220675 0.658437 0.349733 0.499601 0.512553C0.340765 0.675374 0.214866 0.86875 0.129131 1.08158C0.0433963 1.29441 -0.000485861 1.52251 4.05737e-06 1.75277V19.1238C0.000276429 19.2075 0.0245704 19.2893 0.0698596 19.359C0.115149 19.4287 0.179432 19.4831 0.254702 19.5156C0.329973 19.5481 0.412904 19.5572 0.493167 19.5417C0.57343 19.5262 0.647476 19.4869 0.706085 19.4286L2.22973 17.8667C2.26435 17.8194 2.30924 17.781 2.36084 17.7546C2.41244 17.7281 2.46934 17.7143 2.52703 17.7143C2.58472 17.7143 2.64162 17.7281 2.69322 17.7546C2.74483 17.781 2.78971 17.8194 2.82433 17.8667L4.75676 19.8476C4.79138 19.8949 4.83626 19.9333 4.88786 19.9598C4.93947 19.9862 4.99637 20 5.05406 20C5.11175 20 5.16865 19.9862 5.22025 19.9598C5.27185 19.9333 5.31674 19.8949 5.35135 19.8476L6.875 18.2858C6.90962 18.2384 6.9545 18.2 7.00611 18.1736C7.05771 18.1471 7.11461 18.1334 7.1723 18.1334C7.22999 18.1334 7.28689 18.1471 7.33849 18.1736C7.3901 18.2 7.43498 18.2384 7.4696 18.2858L8.99325 19.8476C9.02786 19.8949 9.07275 19.9333 9.12435 19.9598C9.17595 19.9862 9.23285 20 9.29054 20C9.34824 20 9.40514 19.9862 9.45674 19.9598C9.50834 19.9333 9.55323 19.8949 9.58784 19.8476L11.1115 18.2858C11.1461 18.2384 11.191 18.2 11.2426 18.1736C11.2942 18.1471 11.3511 18.1334 11.4088 18.1334C11.4665 18.1334 11.5234 18.1471 11.575 18.1736C11.6266 18.2 11.6715 18.2384 11.7061 18.2858L13.2297 19.8476C13.2643 19.8949 13.3092 19.9333 13.3608 19.9598C13.4124 19.9862 13.4693 20 13.527 20C13.5847 20 13.6416 19.9862 13.6932 19.9598C13.7448 19.9333 13.7897 19.8949 13.8243 19.8476L15.348 18.2858C15.3826 18.2384 15.4275 18.2 15.4791 18.1736C15.5307 18.1471 15.5876 18.1334 15.6453 18.1334C15.703 18.1334 15.7599 18.1471 15.8115 18.1736C15.8631 18.2 15.908 18.2384 15.9426 18.2858L17.4662 19.8476C17.5008 19.8949 17.5457 19.9333 17.5973 19.9598C17.6489 19.9862 17.7058 20 17.7635 20C17.8212 20 17.8781 19.9862 17.9297 19.9598C17.9813 19.9333 18.0262 19.8949 18.0608 19.8476L19.5845 18.2858C19.6191 18.2384 19.664 18.2 19.7156 18.1736C19.7672 18.1471 19.8241 18.1334 19.8818 18.1334C19.9395 18.1334 19.9964 18.1471 20.048 18.1736C20.0996 18.2 20.1444 18.2384 20.1791 18.2858L21.2939 19.4286C21.3525 19.4869 21.4266 19.5262 21.5068 19.5417C21.5871 19.5572 21.67 19.5481 21.7453 19.5156C21.8206 19.4831 21.8849 19.4287 21.9301 19.359C21.9754 19.2893 21.9997 19.2075 22 19.1238V1.71467C22.0001 1.48631 21.9556 1.26024 21.8692 1.04974C21.7829 0.839234 21.6564 0.648537 21.4971 0.488846C21.3379 0.329155 21.1491 0.203689 20.9419 0.119814C20.7347 0.0359401 20.5133 -0.00465132 20.2905 0.000423355ZM12.1149 10.1335V10.5526C11.7777 10.797 11.3758 10.9299 10.9628 10.9335C10.4109 10.9335 9.88157 10.7088 9.49129 10.3087C9.10102 9.90863 8.88176 9.36602 8.88176 8.80024C8.88176 8.23446 9.10102 7.69184 9.49129 7.29177C9.88157 6.89171 10.4109 6.66695 10.9628 6.66695C11.4902 6.66466 11.9987 6.86808 12.3852 7.23594C12.7716 7.6038 13.0071 8.10857 13.0439 8.64786C12.7717 8.78521 12.5413 8.99621 12.3775 9.25805C12.2138 9.5199 12.123 9.82263 12.1149 10.1335ZM17.6892 15.5049C17.6781 15.6491 17.6147 15.7838 17.5115 15.8825C17.4083 15.9812 17.2729 16.0367 17.1318 16.0382H13.7872C13.6501 16.0353 13.5194 15.9781 13.4224 15.8787C13.3255 15.7793 13.2697 15.6454 13.2669 15.5049V14.9715C13.2697 14.831 13.3255 14.697 13.4224 14.5976C13.5194 14.4983 13.6501 14.4411 13.7872 14.4382H17.1689C17.306 14.4411 17.4367 14.4983 17.5337 14.5976C17.6306 14.697 17.6863 14.831 17.6892 14.9715V15.5049ZM17.6892 13.1049C17.6781 13.2491 17.6147 13.3838 17.5115 13.4825C17.4083 13.5812 17.2729 13.6368 17.1318 13.6382H13.7872C13.6501 13.6353 13.5194 13.5782 13.4224 13.4788C13.3255 13.3794 13.2697 13.2454 13.2669 13.1049V12.5716C13.2697 12.4311 13.3255 12.2971 13.4224 12.1977C13.5194 12.0983 13.6501 12.0412 13.7872 12.0383H17.1689C17.306 12.0412 17.4367 12.0983 17.5337 12.1977C17.6306 12.2971 17.6863 12.4311 17.6892 12.5716V13.1049ZM17.6892 10.6669C17.6781 10.8111 17.6147 10.9458 17.5115 11.0445C17.4083 11.1432 17.2729 11.1987 17.1318 11.2002H13.7872C13.6501 11.1973 13.5194 11.1401 13.4224 11.0408C13.3255 10.9414 13.2697 10.8074 13.2669 10.6669V10.1335C13.2697 9.99301 13.3255 9.85905 13.4224 9.75966C13.5194 9.66026 13.6501 9.60314 13.7872 9.60022H17.1689C17.306 9.60314 17.4367 9.66026 17.5337 9.75966C17.6306 9.85905 17.6863 9.99301 17.6892 10.1335V10.6669ZM17.7264 8.49548C17.5601 8.43299 17.3828 8.40703 17.2061 8.41929H16.1284V7.27646C15.7341 7.27646 15.356 7.11592 15.0773 6.83016C14.7985 6.54439 14.6419 6.15681 14.6419 5.75268H7.28379C7.28379 6.15681 7.12718 6.54439 6.84841 6.83016C6.56963 7.11592 6.19154 7.27646 5.7973 7.27646V10.4764C6.19154 10.4764 6.56963 10.6369 6.84841 10.9227C7.12718 11.2085 7.28379 11.596 7.28379 12.0002H12.1892C12.1282 12.1706 12.1029 12.3523 12.1149 12.5335V13.0668C12.1304 13.2611 12.1678 13.4528 12.2264 13.6382H5.53717C5.37082 13.6398 5.20585 13.6073 5.05189 13.5427C4.89792 13.4782 4.75804 13.3828 4.64041 13.2623C4.52279 13.1417 4.42977 12.9983 4.3668 12.8405C4.30383 12.6826 4.27216 12.5135 4.27365 12.343V5.44793C4.27216 5.27741 4.30383 5.1083 4.3668 4.95047C4.42977 4.79264 4.52279 4.64925 4.64041 4.52868C4.75804 4.4081 4.89792 4.31275 5.05189 4.2482C5.20585 4.18365 5.37082 4.15119 5.53717 4.15272H16.4628C16.6292 4.15119 16.7942 4.18365 16.9481 4.2482C17.1021 4.31275 17.242 4.4081 17.3596 4.52868C17.4772 4.64925 17.5702 4.79264 17.6332 4.95047C17.6962 5.1083 17.7278 5.27741 17.7264 5.44793V8.49548Z" fill="#2F3C7E"/>
</svg>
