<svg width="17" height="17" viewBox="0 0 17 17" fill="none" xmlns="http://www.w3.org/2000/svg">
<path d="M0.5008 12.5C0.5008 12.7773 0.596795 13.0173 0.788786 13.22C0.980776 13.4227 1.22076 13.5187 1.50875 13.508H2.5007C2.5007 14.34 2.79402 15.044 3.38066 15.62C3.96729 16.196 4.67659 16.4893 5.50855 16.5H8.85238C8.13775 15.9987 7.56178 15.332 7.12447 14.5H5.50855C5.23123 14.5 4.99124 14.404 4.78859 14.212C4.58593 14.02 4.48993 13.7853 4.5006 13.508V3.508C4.5006 3.23067 4.5966 2.996 4.78859 2.804C4.98058 2.612 5.22056 2.51067 5.50855 2.5H13.5082C13.7748 2.5 14.0095 2.60133 14.2121 2.804C14.4148 3.00667 14.5108 3.24133 14.5001 3.508V7.124C15.3321 7.56133 15.9987 8.13733 16.5 8.852V3.508C16.5 2.676 16.2067 1.96667 15.62 1.38C15.0334 0.793333 14.3294 0.5 13.5082 0.5H5.50855C4.67659 0.5 3.96729 0.793333 3.38066 1.38C2.79402 1.96667 2.5007 2.676 2.5007 3.508H1.50875C1.23143 3.508 0.991442 3.604 0.788786 3.796C0.586129 3.988 0.490134 4.22267 0.5008 4.5C0.511466 4.77733 0.607461 5.01733 0.788786 5.22C0.97011 5.42267 1.2101 5.51867 1.50875 5.508H2.5007V7.508H1.50875C1.23143 7.508 0.991442 7.604 0.788786 7.796C0.586129 7.988 0.490134 8.22267 0.5008 8.5C0.511466 8.77733 0.607461 9.01733 0.788786 9.22C0.97011 9.42267 1.2101 9.51867 1.50875 9.508H2.5007V11.508H1.50875C1.23143 11.508 0.991442 11.604 0.788786 11.796C0.586129 11.988 0.490134 12.2227 0.5008 12.5ZM5.50855 12.5H6.5485C6.5485 12.4787 6.54317 12.4093 6.5325 12.292C6.52183 12.1747 6.51117 12.0787 6.5005 12.004C6.48983 11.9293 6.5005 11.8387 6.5325 11.732C6.5645 11.6253 6.56983 11.5507 6.5485 11.508H5.50855V12.5ZM5.50855 10.5H6.74049C6.83648 10.1373 6.96448 9.80667 7.12447 9.508H5.50855V10.5ZM5.50855 8.5H7.79644C8.12709 8.09467 8.47907 7.764 8.85238 7.508H5.50855V8.5ZM5.50855 6.5H13.5082V5.508H5.50855V6.5ZM5.50855 4.5H13.5082V3.508H5.50855V4.5ZM7.50845 12.004C7.50845 12.612 7.62578 13.1933 7.86043 13.748C8.09509 14.3027 8.41507 14.7827 8.82038 15.188C9.2257 15.5933 9.70567 15.9133 10.2603 16.148C10.815 16.3827 11.3963 16.5 12.0042 16.5C12.6122 16.5 13.1935 16.3827 13.7481 16.148C14.3028 15.9133 14.7828 15.5933 15.1881 15.188C15.5934 14.7827 15.9134 14.3027 16.148 13.748C16.3827 13.1933 16.5 12.612 16.5 12.004C16.5 11.396 16.3827 10.8147 16.148 10.26C15.9134 9.70533 15.5934 9.22533 15.1881 8.82C14.7828 8.41467 14.3028 8.09467 13.7481 7.86C13.1935 7.62533 12.6122 7.508 12.0042 7.508C11.3963 7.508 10.815 7.62533 10.2603 7.86C9.70567 8.09467 9.2257 8.41467 8.82038 8.82C8.41507 9.22533 8.09509 9.70533 7.86043 10.26C7.62578 10.8147 7.50845 11.396 7.50845 12.004ZM9.50835 12.004C9.50835 11.3107 9.74834 10.724 10.2283 10.244C10.7083 9.764 11.3003 9.51867 12.0042 9.508C12.7082 9.49733 13.2948 9.74267 13.7641 10.244C14.2334 10.7453 14.4788 11.332 14.5001 12.004C14.5001 12.6973 14.2548 13.284 13.7641 13.764C13.2735 14.244 12.6869 14.4893 12.0042 14.5C11.3216 14.5107 10.7296 14.2653 10.2283 13.764C9.72701 13.2627 9.48702 12.676 9.50835 12.004ZM11.5083 12.004C11.5083 12.1427 11.5562 12.26 11.6522 12.356C11.7482 12.452 11.8656 12.5 12.0042 12.5H12.9962C13.1348 12.5 13.2522 12.452 13.3482 12.356C13.4442 12.26 13.4975 12.1427 13.5082 12.004C13.5188 11.8653 13.4655 11.748 13.3482 11.652C13.2308 11.556 13.1135 11.508 12.9962 11.508H12.5002V11.012C12.5002 10.8733 12.4522 10.756 12.3562 10.66C12.2602 10.564 12.1429 10.5107 12.0042 10.5C11.8656 10.4893 11.7482 10.5427 11.6522 10.66C11.5562 10.7773 11.5083 10.8947 11.5083 11.012V12.004Z" fill="white"/>
</svg>
