<svg width="20" height="21" viewBox="0 0 20 21" fill="none" xmlns="http://www.w3.org/2000/svg">
<path fill-rule="evenodd" clip-rule="evenodd" d="M13.976 10.4999C13.976 10.1007 13.6524 9.77704 13.2531 9.77704H2.67708L4.56688 8.15721C4.87001 7.89739 4.90512 7.44102 4.64529 7.1379C4.38547 6.83476 3.9291 6.79966 3.62597 7.05949L0.252446 9.95112C0.0922129 10.0884 0 10.289 0 10.4999C0 10.7109 0.0922129 10.9115 0.252446 11.0488L3.62597 13.9404C3.9291 14.2002 4.38547 14.1651 4.64529 13.862C4.90512 13.5589 4.87001 13.1025 4.56688 12.8427L2.67708 11.2228H13.2531C13.6524 11.2228 13.976 10.8992 13.976 10.4999Z" fill="#2F3C7E"/>
<path d="M7.46997 6.64452C7.46997 7.32133 7.46997 7.65975 7.63239 7.90284C7.70273 8.00811 7.79311 8.09849 7.89837 8.16882C8.1415 8.33124 8.47991 8.33124 9.15673 8.33124H13.2532C14.4509 8.33124 15.4219 9.30218 15.4219 10.5C15.4219 11.6977 14.4509 12.6687 13.2532 12.6687H9.15673C8.47991 12.6687 8.1414 12.6687 7.89831 12.8311C7.79309 12.9014 7.70274 12.9918 7.63243 13.097C7.46997 13.3401 7.46997 13.6785 7.46997 14.3554C7.46997 17.0816 7.46997 18.4447 8.31692 19.2917C9.16387 20.1386 10.5268 20.1386 13.253 20.1386H14.2168C16.943 20.1386 18.3061 20.1386 19.1531 19.2917C20 18.4447 20 17.0816 20 14.3554V6.64452C20 3.9183 20 2.55519 19.1531 1.70826C18.3061 0.861328 16.943 0.861328 14.2168 0.861328H13.253C10.5268 0.861328 9.16387 0.861328 8.31692 1.70826C7.46997 2.55519 7.46997 3.91829 7.46997 6.64452Z" fill="#2F3C7E"/>
</svg>
