<svg width="24" height="26" viewBox="0 0 24 26" fill="none" xmlns="http://www.w3.org/2000/svg">
<path d="M0.600692 25.5C0.441513 25.5 0.282334 25.4413 0.16295 25.3044C0.0435653 25.187 -0.0161268 25.0305 0.00377056 24.8545L1.25731 5.91862C1.2772 5.60563 1.53587 5.37089 1.85423 5.37089H7.10713V5.29264C7.10713 4.00156 7.62446 2.80829 8.53974 1.88889C9.47492 1.00861 10.6887 0.5 12.0019 0.5C14.688 0.5 16.8966 2.6518 16.8966 5.31221C16.8966 5.33177 16.8767 5.35133 16.8767 5.37089V5.39045H22.1495C22.4679 5.39045 22.7266 5.6252 22.7465 5.93818L23.9801 24.7371C24 24.7958 24 24.8349 24 24.8936C23.9801 25.2261 23.7214 25.5 23.3832 25.5H0.600692ZM4.5 19H19.5V6.56416H16.8767V7.97261H16.8966C17.215 8.18779 17.3941 8.50078 17.3941 8.8529C17.3941 9.45931 16.8966 9.94836 16.2798 9.94836C15.663 9.94836 15.1656 9.45931 15.1656 8.8529C15.1656 8.50078 15.3446 8.18779 15.663 7.97261H15.6829V6.56416H8.30097V7.97261H8.32087C8.63923 8.18779 8.81831 8.50078 8.81831 8.8529C8.81831 9.45931 8.32087 9.94836 7.70405 9.94836C7.08724 9.94836 6.5898 9.45931 6.5898 8.8529C6.5898 8.50078 6.76888 8.18779 7.08723 7.97261H7.10713V6.56416H4.5V19ZM12.0019 1.69327C9.97235 1.69327 8.30097 3.3169 8.30097 5.33177V5.41002H15.7227L15.7028 5.37089V5.33177C15.7028 3.3169 14.0314 1.69327 12.0019 1.69327Z" fill="#2F3C7E"/>
</svg>
