<svg width="22" height="22" viewBox="0 0 22 22" fill="none" xmlns="http://www.w3.org/2000/svg">
<path d="M14.8173 9.64811L9.11608 15.7374C8.63255 16.2777 7.94425 16.5902 7.21903 16.5986C6.49389 16.607 5.79851 16.3106 5.30244 15.7816C4.2066 14.6378 4.225 12.8282 5.34388 11.7069L13.0012 3.51885C13.846 2.57862 15.0481 2.03836 16.3121 2.03102C17.576 2.02367 18.7844 2.54992 19.6398 3.48028C21.4648 5.49673 21.4518 8.57156 19.6098 10.5725L11.4909 19.2463C10.3355 20.406 8.75386 21.0395 7.11726 20.9981C5.48064 20.9568 3.93305 20.2443 2.83761 19.0277C0.333709 16.2037 0.395652 11.9368 2.9805 9.18663L10.6493 1" stroke="white" stroke-width="2" stroke-linecap="round" stroke-linejoin="round"/>
</svg>
