<svg width="24" height="20" viewBox="0 0 24 20" fill="none" xmlns="http://www.w3.org/2000/svg">
<path fill-rule="evenodd" clip-rule="evenodd" d="M3.6 1.17647C3.6 0.526729 4.13726 0 4.8 0H19.2C19.8628 0 20.4 0.526729 20.4 1.17647V8.23529C22.3883 8.23529 24 9.81541 24 11.7647V16.4706C24 18.4199 22.3883 20 20.4 20H3.6C1.61177 20 0 18.4199 0 16.4706V11.7647C0 9.81541 1.61178 8.23529 3.6 8.23529V1.17647ZM3.6 10.5882C2.93726 10.5882 2.4 11.1149 2.4 11.7647V16.4706C2.4 17.1204 2.93726 17.6471 3.6 17.6471H20.4C21.0628 17.6471 21.6 17.1204 21.6 16.4706V11.7647C21.6 11.1149 21.0628 10.5882 20.4 10.5882V12.9412C20.4 13.5909 19.8628 14.1176 19.2 14.1176H4.8C4.13726 14.1176 3.6 13.5909 3.6 12.9412V10.5882ZM6 2.35294V9.41177V11.7647H18V9.41177V2.35294H6ZM8.4 5.88235C8.4 5.23261 8.93726 4.70588 9.6 4.70588H14.4C15.0628 4.70588 15.6 5.23261 15.6 5.88235C15.6 6.53209 15.0628 7.05882 14.4 7.05882H9.6C8.93726 7.05882 8.4 6.53209 8.4 5.88235ZM8.4 9.41177C8.4 8.762 8.93726 8.23529 9.6 8.23529H14.4C15.0628 8.23529 15.6 8.762 15.6 9.41177C15.6 10.0615 15.0628 10.5882 14.4 10.5882H9.6C8.93726 10.5882 8.4 10.0615 8.4 9.41177Z" fill="black"/>
</svg>
