<svg width="20" height="20" viewBox="0 0 20 20" fill="none" xmlns="http://www.w3.org/2000/svg">
<path d="M9.49902 0.5C14.4686 0.500254 18.4971 4.52941 18.4971 9.49902C18.4968 14.4684 14.4684 18.4968 9.49902 18.4971C4.52941 18.4971 0.500254 14.4686 0.5 9.49902C0.5 4.52926 4.52926 0.5 9.49902 0.5Z" stroke="black"/>
<path d="M17.3071 17.2958C17.37 17.2381 17.472 17.2257 17.5552 17.2792L17.5913 17.3076L19.4438 19.1611C19.5123 19.2296 19.5222 19.3493 19.4458 19.4384C19.3986 19.4779 19.3449 19.497 19.2974 19.497C19.2704 19.497 19.2444 19.4917 19.2212 19.4824L19.1616 19.4433L17.3013 17.5839C17.2304 17.513 17.2216 17.3856 17.3071 17.2958Z" stroke="black"/>
</svg>
