<svg width="24" height="22" viewBox="0 0 24 22" fill="none" xmlns="http://www.w3.org/2000/svg">
<path d="M10.6122 11.0009H4.80296M4.71354 11.307L2.24734 18.6331C2.05359 19.2087 1.95672 19.4965 2.02624 19.6737C2.08661 19.8275 2.21627 19.9442 2.37627 19.9887C2.56052 20.0398 2.8388 19.9152 3.39536 19.6662L21.0464 11.7671C21.5897 11.5241 21.8613 11.4025 21.9453 11.2336C22.0182 11.0869 22.0182 10.9148 21.9453 10.7681C21.8613 10.5992 21.5897 10.4777 21.0464 10.2346L3.3892 2.33281C2.83432 2.0845 2.55689 1.96034 2.37283 2.01127C2.21298 2.05551 2.08332 2.17187 2.02274 2.32549C1.95298 2.50236 2.04882 2.78951 2.24049 3.36381L4.71423 10.7756C4.74715 10.8742 4.7636 10.9236 4.77011 10.974C4.77588 11.0187 4.77582 11.064 4.76993 11.1087C4.76331 11.1593 4.74672 11.2085 4.71354 11.307Z" stroke="white" stroke-width="3" stroke-linecap="round" stroke-linejoin="round"/>
</svg>
