<svg width="19" height="21" viewBox="0 0 19 21" fill="none" xmlns="http://www.w3.org/2000/svg">
<path fill-rule="evenodd" clip-rule="evenodd" d="M11.2148 1.00674C10.8578 0.859985 10.4052 0.859985 9.50004 0.859985C8.59484 0.859985 8.14224 0.859985 7.78527 1.00674C7.30925 1.20243 6.93107 1.57776 6.7339 2.05017C6.64389 2.26583 6.60866 2.51662 6.59488 2.88245C6.57463 3.42006 6.29682 3.91769 5.82736 4.18668C5.3579 4.45567 4.78477 4.44562 4.30551 4.19423C3.97938 4.02316 3.74292 3.92803 3.50973 3.89757C2.99891 3.83082 2.48229 3.9682 2.07354 4.27949C1.76697 4.51295 1.54067 4.90194 1.08808 5.67992C0.63549 6.4579 0.409201 6.84689 0.358764 7.22712C0.291506 7.73408 0.429936 8.24679 0.743593 8.65248C0.886757 8.83766 1.08795 8.99325 1.40022 9.18798C1.85929 9.47429 2.15467 9.96198 2.15464 10.5C2.15461 11.038 1.85924 11.5256 1.40022 11.8118C1.0879 12.0066 0.88667 12.1623 0.743497 12.3475C0.42984 12.7531 0.291419 13.2658 0.358668 13.7728C0.409104 14.153 0.635403 14.542 1.08798 15.32C1.54057 16.0979 1.76687 16.487 2.07344 16.7204C2.4822 17.0317 2.99881 17.169 3.50964 17.1023C3.74282 17.0719 3.97926 16.9767 4.30536 16.8057C4.78465 16.5543 5.35783 16.5443 5.82731 16.8132C6.2968 17.0823 6.57462 17.5799 6.59488 18.1176C6.60866 18.4834 6.64389 18.7342 6.7339 18.9498C6.93107 19.4222 7.30925 19.7976 7.78527 19.9933C8.14224 20.14 8.59484 20.14 9.50004 20.14C10.4052 20.14 10.8578 20.14 11.2148 19.9933C11.6908 19.7976 12.069 19.4222 12.2661 18.9498C12.3562 18.7342 12.3915 18.4834 12.4052 18.1175C12.4255 17.5799 12.7032 17.0823 13.1727 16.8132C13.6422 16.5442 14.2153 16.5543 14.6946 16.8057C15.0208 16.9767 15.2571 17.0718 15.4903 17.1022C16.0012 17.169 16.5178 17.0317 16.9265 16.7204C17.2332 16.4869 17.4594 16.0979 17.912 15.3199C18.3646 14.5419 18.5908 14.153 18.6414 13.7728C18.7086 13.2658 18.5701 12.753 18.2565 12.3474C18.1133 12.1622 17.9121 12.0065 17.5998 11.8118C17.1408 11.5256 16.8454 11.0379 16.8454 10.4999C16.8454 9.96188 17.1408 9.47439 17.5998 9.18818C17.9122 8.99335 18.1134 8.83776 18.2566 8.65248C18.5702 8.24686 18.7086 7.73414 18.6415 7.22718C18.5909 6.84696 18.3647 6.45796 17.9121 5.67999C17.4595 4.90201 17.2332 4.51302 16.9266 4.27955C16.5179 3.96827 16.0013 3.83089 15.4904 3.89764C15.2572 3.9281 15.0208 4.02322 14.6947 4.19427C14.2154 4.44567 13.6423 4.45572 13.1728 4.18671C12.7033 3.91771 12.4255 3.42004 12.4051 2.8824C12.3914 2.5166 12.3562 2.26582 12.2661 2.05017C12.069 1.57776 11.6908 1.20243 11.2148 1.00674ZM9.50004 13.392C11.1094 13.392 12.414 12.0972 12.414 10.5C12.414 8.90273 11.1094 7.60799 9.50004 7.60799C7.89064 7.60799 6.58602 8.90273 6.58602 10.5C6.58602 12.0972 7.89064 13.392 9.50004 13.392Z" fill="#2F3C7E"/>
</svg>
