<svg width="22" height="19" viewBox="0 0 22 19" fill="none" xmlns="http://www.w3.org/2000/svg">
<path fill-rule="evenodd" clip-rule="evenodd" d="M14.3 0L15.4 1.1L15.4 3.3H22V18.7H0V3.3H6.6V1.1L7.7 0H14.3ZM2.19999 11.392L2.2 16.5H19.8L19.8 11.392C17.6022 12.0208 15.4018 12.4141 13.2 12.5714L13.2 14.3H8.8L8.79998 12.5714C6.5982 12.4141 4.39785 12.0208 2.19999 11.392ZM19.8 5.5H2.2L2.20001 9.09733C5.13762 9.99968 8.0699 10.45 11 10.45C13.9301 10.45 16.8624 9.99968 19.8 9.09732L19.8 5.5ZM13.2 2.2H8.8V3.3H13.2V2.2Z" fill="#2F3C7E"/>
</svg>
